<?xml version="1.0" encoding="UTF-8" standalone="no"?><!DOCTYPE svg PUBLIC "-//W3C//DTD SVG 1.1//EN" "http://www.w3.org/Graphics/SVG/1.1/DTD/svg11.dtd"><svg width="100%" height="100%" viewBox="0 0 1155 209" version="1.1" xmlns="http://www.w3.org/2000/svg" xmlns:xlink="http://www.w3.org/1999/xlink" xml:space="preserve" xmlns:serif="http://www.serif.com/" style="fill-rule:evenodd;clip-rule:evenodd;stroke-miterlimit:2;"><g><path d="M15.117,125.658l48.666,0c13.209,0 22.059,-2.225 26.546,-6.675c4.483,-4.445 6.729,-12.916 6.729,-25.404l0,-43.966c0,-13.163 -2.229,-21.967 -6.683,-26.417c-4.454,-4.446 -13.317,-6.671 -26.592,-6.671l-48.666,-0l-0,109.133Zm-15.117,13.43l0,-136.088l66.271,0c17.208,0 29.283,3.383 36.229,10.146c6.942,6.758 10.413,18.554 10.413,35.371l-0,44.879c-0,16.875 -3.488,28.708 -10.463,35.504c-6.975,6.796 -19.033,10.188 -36.179,10.188l-66.271,-0Z" style="fill:#dc1931;fill-rule:nonzero;"/><path d="M203.337,114.596l0,-10.146c0,-4.567 -2.354,-7.921 -7.054,-10.05c-4.7,-2.138 -12.183,-3.204 -22.441,-3.204c-9.404,-0 -15.688,1.179 -18.85,3.521c-3.167,2.346 -4.746,6.841 -4.746,13.479c-0,7.558 1.671,12.604 5.021,15.129c3.35,2.529 10.062,3.792 20.141,3.792c9.034,-0 15.946,-1.079 20.738,-3.242c4.796,-2.158 7.191,-5.258 7.191,-9.279Zm0.734,14.35c-2.209,4.025 -5.729,6.933 -10.55,8.729c-4.825,1.796 -11.509,2.696 -20.05,2.696c-15.179,-0 -25.346,-2.15 -30.508,-6.442c-5.163,-4.296 -7.742,-12.296 -7.742,-23.996c-0,-6.762 0.6,-12.062 1.796,-15.9c1.2,-3.841 3.179,-6.912 5.946,-9.233c2.333,-1.95 5.758,-3.337 10.275,-4.158c4.516,-0.825 11.016,-1.234 19.495,-1.234c8.788,0 15.5,0.717 20.142,2.146c4.637,1.433 8.125,3.829 10.462,7.175l0,-16.633c0,-7.863 -1.537,-12.946 -4.612,-15.263c-3.071,-2.316 -10.783,-3.471 -23.133,-3.471c-8.971,0 -14.934,0.925 -17.884,2.784c-2.945,1.858 -4.483,5.346 -4.608,10.466l-14.288,0l0,-2.195c0,-8.225 2.688,-14.088 8.067,-17.592c5.375,-3.504 14.642,-5.258 27.792,-5.258c10.262,-0 18.066,0.429 23.412,1.283c5.346,0.85 9.309,2.225 11.888,4.112c2.829,2.192 4.825,4.905 5.992,8.134c1.166,3.229 1.749,8.775 1.749,16.633l0,67.359l-13.087,-0l-0.554,-10.142Z" style="fill:#dc1931;fill-rule:nonzero;"/><path d="M236.888,55.004l-0,-12.154l11.891,0l0,-21.663l14.379,0l0,21.663l47.563,0l-0,12.154l-47.563,0l0,53.013c0,7.554 1.242,12.687 3.734,15.4c2.487,2.712 7.233,4.066 14.241,4.066c6.942,0 11.63,-1.308 14.059,-3.929c2.425,-2.621 3.637,-7.8 3.637,-15.537l0,-2.834l14.563,0l-0,0.821c-0,13.529 -2.255,22.642 -6.775,27.329c-4.517,4.692 -13.905,7.038 -28.159,7.038c-11.12,-0 -18.85,-2.483 -23.179,-7.446c-4.333,-4.967 -6.5,-13.942 -6.5,-26.921l0,-51l-11.891,0Z" style="fill:#dc1931;fill-rule:nonzero;"/><path d="M403.079,114.596l0,-10.146c0,-4.567 -2.35,-7.921 -7.054,-10.05c-4.7,-2.138 -12.183,-3.204 -22.442,-3.204c-9.404,-0 -15.687,1.179 -18.85,3.521c-3.166,2.346 -4.745,6.841 -4.745,13.479c-0,7.558 1.67,12.604 5.02,15.129c3.35,2.529 10.063,3.792 20.142,3.792c9.033,-0 15.946,-1.079 20.738,-3.242c4.791,-2.158 7.191,-5.258 7.191,-9.279Zm0.738,14.35c-2.213,4.025 -5.734,6.933 -10.554,8.729c-4.826,1.796 -11.509,2.696 -20.051,2.696c-15.174,-0 -25.345,-2.15 -30.508,-6.442c-5.162,-4.296 -7.742,-12.296 -7.742,-23.996c0,-6.762 0.601,-12.062 1.796,-15.9c1.2,-3.841 3.179,-6.912 5.946,-9.233c2.333,-1.95 5.763,-3.337 10.275,-4.158c4.521,-0.825 11.017,-1.234 19.496,-1.234c8.787,0 15.5,0.717 20.142,2.146c4.637,1.433 8.125,3.829 10.462,7.175l0,-16.633c0,-7.863 -1.537,-12.946 -4.608,-15.263c-3.075,-2.316 -10.788,-3.471 -23.138,-3.471c-8.97,0 -14.929,0.925 -17.883,2.784c-2.95,1.858 -4.483,5.346 -4.604,10.466l-14.292,0l0,-2.195c0,-8.225 2.688,-14.088 8.067,-17.592c5.375,-3.504 14.642,-5.258 27.792,-5.258c10.262,-0 18.066,0.429 23.412,1.283c5.346,0.85 9.308,2.225 11.888,4.112c2.829,2.192 4.824,4.905 5.991,8.134c1.171,3.229 1.754,8.775 1.754,16.633l0,67.359l-13.087,-0l-0.554,-10.142Z" style="fill:#dc1931;fill-rule:nonzero;"/><path d="M442.717,110.483l14.566,0l0,2.192c0,5.913 1.842,9.983 5.529,12.204c3.684,2.225 11.092,3.338 22.213,3.338c12.471,-0 20.15,-1.125 23.042,-3.384c2.887,-2.254 4.329,-6.608 4.329,-13.071c-0,-6.275 -1.183,-10.462 -3.55,-12.566c-2.363,-2.104 -8.271,-3.396 -17.738,-3.884c-3.504,-0.183 -8.237,-0.362 -14.2,-0.549c-13.025,-0.363 -20.762,-1.246 -23.225,-2.65c-3.687,-2.009 -6.312,-4.755 -7.879,-8.23c-1.567,-3.471 -2.35,-8.462 -2.35,-14.987c0,-10.658 2.733,-17.883 8.2,-21.663c5.475,-3.775 17.517,-5.666 36.138,-5.666c14.437,-0 24.225,1.8 29.358,5.395c5.125,3.596 7.692,9.9 7.692,18.917l-14.375,0l-0,-0.912c-0,-4.267 -1.863,-7.205 -5.584,-8.821c-3.716,-1.613 -11.104,-2.421 -22.162,-2.421c-10.692,0 -17.513,0.975 -20.467,2.925c-2.95,1.95 -4.421,6.033 -4.421,12.246c0,3.779 0.279,6.429 0.825,7.95c0.559,1.529 1.542,2.683 2.955,3.475c2.883,1.525 9.279,2.412 19.17,2.654c2.521,0.058 4.455,0.121 5.804,0.183c8.113,0.305 14.475,0.713 19.088,1.23c4.604,0.52 7.892,1.237 9.858,2.149c4.3,1.95 7.359,4.755 9.175,8.413c1.809,3.654 2.713,8.954 2.713,15.896c-0,7.071 -0.892,12.433 -2.667,16.087c-1.787,3.659 -4.979,6.888 -9.587,9.692c-2.088,1.342 -5.504,2.3 -10.23,2.875c-4.733,0.579 -11.308,0.871 -19.733,0.871c-17.204,-0 -28.587,-1.967 -34.146,-5.896c-5.562,-3.925 -8.341,-11.071 -8.341,-21.433l-0,-2.559Z" style="fill:#dc1931;fill-rule:nonzero;"/><path d="M622.275,99.242l-0,-16.45c-0,-12.13 -1.554,-19.85 -4.658,-23.171c-3.104,-3.321 -9.634,-4.979 -19.588,-4.979l-6.729,-0c-9.896,-0 -16.358,1.645 -19.4,4.929c-3.042,3.292 -4.563,11.033 -4.563,23.221l0,16.45c0,12.245 1.538,20.02 4.605,23.308c3.075,3.288 9.529,4.933 19.358,4.933l6.729,0c9.892,0 16.408,-1.675 19.546,-5.029c3.129,-3.346 4.7,-11.087 4.7,-23.212Zm-30.792,41.129c-14.5,-0 -24.641,-2.804 -30.412,-8.409c-5.779,-5.604 -8.667,-15.45 -8.667,-29.52l0,-22.85c0,-14.138 2.871,-24.009 8.617,-29.613c5.75,-5.604 15.842,-8.412 30.279,-8.412l6.729,-0c14.504,-0 24.642,2.808 30.421,8.412c5.775,5.604 8.662,15.475 8.662,29.613l0,22.85c0,14.133 -2.87,23.987 -8.616,29.566c-5.75,5.575 -15.842,8.363 -30.279,8.363l-6.734,-0Z" style="fill:#dc1931;fill-rule:nonzero;"/><path d="M742.096,42.85l-0,96.238l-13.825,-0l-0,-13.063c-2.275,4.875 -6.025,8.483 -11.246,10.829c-5.221,2.346 -12.104,3.517 -20.646,3.517c-12.658,-0 -21.537,-2.542 -26.637,-7.633c-5.1,-5.084 -7.654,-13.996 -7.654,-26.734l-0,-63.154l14.291,0l0,60.137c0,9.996 1.504,16.575 4.517,19.746c3.008,3.163 8.879,4.75 17.604,4.75c10.075,0 17.433,-2.283 22.075,-6.854c4.642,-4.571 6.958,-11.821 6.958,-21.754l0,-56.025l14.563,0Z" style="fill:#dc1931;fill-rule:nonzero;"/><path d="M771.592,139.088l-0,-96.238l13.916,0l0,13.158c2.03,-4.995 5.192,-8.65 9.496,-10.966c4.3,-2.313 10.017,-3.475 17.146,-3.475c10.567,-0 17.983,2.533 22.263,7.587c4.266,5.059 6.404,14.017 6.404,26.875l-0,0.729l-14.475,0l-0,-2.833c-0,-7.679 -1.23,-12.842 -3.688,-15.492c-2.454,-2.65 -7.096,-3.979 -13.912,-3.979c-7.992,0 -13.767,2.242 -17.334,6.721c-3.562,4.479 -5.346,11.808 -5.346,21.983l0,55.93l-14.47,-0Z" style="fill:#dc1931;fill-rule:nonzero;"/><path d="M895.2,140.371c-14.504,-0 -24.646,-2.804 -30.417,-8.409c-5.779,-5.604 -8.666,-15.45 -8.666,-29.52l-0,-22.85c-0,-14.138 2.87,-24.009 8.616,-29.613c5.75,-5.604 15.842,-8.412 30.284,-8.412l6.729,-0c13.7,-0 23.579,2.608 29.629,7.816c6.05,5.213 9.204,13.754 9.45,25.638l-14.842,0.092c-0.304,-7.796 -2.087,-13.159 -5.345,-16.088c-3.255,-2.925 -9.555,-4.383 -18.892,-4.383l-6.729,-0c-9.896,-0 -16.363,1.645 -19.409,4.929c-3.037,3.292 -4.558,11.033 -4.558,23.221l0,16.45c0,12.245 1.538,20.02 4.608,23.308c3.071,3.288 9.525,4.933 19.359,4.933l6.729,0c9.458,0 15.862,-1.6 19.212,-4.796c3.35,-3.204 5.025,-9.033 5.025,-17.504l0,-1.65l14.842,0l0,1.834c0,12.55 -2.996,21.525 -8.987,26.916c-5.992,5.392 -15.963,8.088 -29.909,8.088l-6.729,-0Z" style="fill:#dc1931;fill-rule:nonzero;"/><path d="M977.696,81.604l54.933,0l0,-3.75c0,-9.017 -1.629,-15.137 -4.883,-18.371c-3.259,-3.229 -9.713,-4.841 -19.354,-4.841l-6.734,-0c-9.583,-0 -15.975,1.612 -19.171,4.841c-3.195,3.234 -4.791,9.354 -4.791,18.371l-0,3.75Zm24.146,58.767c-14.5,-0 -24.642,-2.804 -30.417,-8.409c-5.775,-5.604 -8.667,-15.45 -8.667,-29.52l0,-22.85c0,-14.138 2.88,-24.009 8.621,-29.613c5.75,-5.604 15.838,-8.412 30.279,-8.412l6.734,-0c14.495,-0 24.641,2.808 30.412,8.412c5.775,5.604 8.663,15.475 8.663,29.613l-0,14.529l-69.771,0.092c-0.063,0.974 -0.108,2.058 -0.142,3.245c-0.033,1.188 -0.046,2.855 -0.046,4.984c0,9.929 1.6,16.587 4.796,19.966c3.192,3.384 9.646,5.075 19.354,5.075l6.734,0c8.662,0 14.683,-1.233 18.062,-3.7c3.379,-2.466 5.35,-6.775 5.904,-12.937l14.929,-0c-0.737,10.425 -4.12,17.95 -10.141,22.579c-6.021,4.629 -15.55,6.946 -28.575,6.946l-6.729,-0Z" style="fill:#dc1931;fill-rule:nonzero;"/><path d="M1089.73,31.567c0,6.133 -4.966,11.104 -11.1,11.104c-6.133,-0 -11.104,-4.971 -11.104,-11.104c0,-6.134 4.971,-11.105 11.104,-11.105c6.134,0 11.1,4.971 11.1,11.105Z" style="fill:#9c8e75;fill-rule:nonzero;"/><path d="M1089.73,31.567c0,6.133 -4.966,11.104 -11.1,11.104c-6.133,-0 -11.104,-4.971 -11.104,-11.104c0,-6.134 4.971,-11.105 11.104,-11.105c6.134,0 11.1,4.971 11.1,11.105Z" style="fill:none;stroke:#9c8e75;stroke-width:1.04px;"/><path d="M1149.85,91.787c0,6.138 -4.975,11.109 -11.104,11.109c-6.133,-0 -11.104,-4.971 -11.104,-11.109c-0,-6.133 4.971,-11.104 11.104,-11.104c6.129,0 11.104,4.971 11.104,11.104Z" style="fill:#9c8e75;fill-rule:nonzero;"/><path d="M1149.85,91.787c0,6.138 -4.975,11.109 -11.104,11.109c-6.133,-0 -11.104,-4.971 -11.104,-11.109c-0,-6.133 4.971,-11.104 11.104,-11.104c6.129,0 11.104,4.971 11.104,11.104Z" style="fill:none;stroke:#9c8e75;stroke-width:1.04px;"/><path d="M1150.28,61.888c0,6.137 -4.971,11.108 -11.104,11.108c-6.129,-0 -11.104,-4.971 -11.104,-11.108c-0,-6.13 4.975,-11.105 11.104,-11.105c6.133,0 11.104,4.975 11.104,11.105Z" style="fill:#9c8e75;fill-rule:nonzero;"/><path d="M1150.28,61.888c0,6.137 -4.971,11.108 -11.104,11.108c-6.129,-0 -11.104,-4.971 -11.104,-11.108c-0,-6.13 4.975,-11.105 11.104,-11.105c6.133,0 11.104,4.975 11.104,11.105Z" style="fill:none;stroke:#9c8e75;stroke-width:1.04px;"/><path d="M1089.73,92.004c0,6.129 -4.966,11.104 -11.1,11.104c-6.133,0 -11.104,-4.975 -11.104,-11.104c0,-6.133 4.971,-11.104 11.104,-11.104c6.134,0 11.1,4.971 11.1,11.104Z" style="fill:#9c8e75;fill-rule:nonzero;"/><path d="M1089.73,92.004c0,6.129 -4.966,11.104 -11.1,11.104c-6.133,0 -11.104,-4.975 -11.104,-11.104c0,-6.133 4.971,-11.104 11.104,-11.104c6.134,0 11.1,4.971 11.1,11.104Z" style="fill:none;stroke:#9c8e75;stroke-width:1.04px;"/><path d="M1089.95,61.888c0,6.137 -4.975,11.108 -11.104,11.108c-6.138,-0 -11.104,-4.971 -11.104,-11.108c-0,-6.13 4.966,-11.105 11.104,-11.105c6.129,0 11.104,4.975 11.104,11.105Z" style="fill:#9c8e75;fill-rule:nonzero;"/><path d="M1089.95,61.888c0,6.137 -4.975,11.108 -11.104,11.108c-6.138,-0 -11.104,-4.971 -11.104,-11.108c-0,-6.13 4.966,-11.105 11.104,-11.105c6.129,0 11.104,4.975 11.104,11.105Z" style="fill:none;stroke:#9c8e75;stroke-width:1.04px;"/><path d="M1150.39,32.313c-0,6.133 -4.975,11.104 -11.109,11.104c-6.133,-0 -11.104,-4.971 -11.104,-11.104c0,-6.134 4.971,-11.105 11.104,-11.105c6.134,0 11.109,4.971 11.109,11.105Z" style="fill:#9c8e75;fill-rule:nonzero;"/><path d="M1150.39,32.313c-0,6.133 -4.975,11.104 -11.109,11.104c-6.133,-0 -11.104,-4.971 -11.104,-11.104c0,-6.134 4.971,-11.105 11.104,-11.105c6.134,0 11.109,4.971 11.109,11.105Z" style="fill:none;stroke:#9c8e75;stroke-width:1.04px;"/><path d="M1120.38,31.458c0,6.134 -4.97,11.105 -11.108,11.105c-6.129,-0 -11.104,-4.971 -11.104,-11.105c-0,-6.133 4.975,-11.104 11.104,-11.104c6.138,0 11.108,4.971 11.108,11.104Z" style="fill:#9c8e75;fill-rule:nonzero;"/><path d="M1120.38,31.458c0,6.134 -4.97,11.105 -11.108,11.105c-6.129,-0 -11.104,-4.971 -11.104,-11.105c-0,-6.133 4.975,-11.104 11.104,-11.104c6.138,0 11.108,4.971 11.108,11.104Z" style="fill:none;stroke:#9c8e75;stroke-width:1.04px;"/><path d="M1120.17,92.108c-0,6.134 -4.975,11.104 -11.104,11.104c-6.134,0 -11.105,-4.97 -11.105,-11.104c0,-6.133 4.971,-11.104 11.105,-11.104c6.129,0 11.104,4.971 11.104,11.104Z" style="fill:#9c8e75;fill-rule:nonzero;"/><path d="M1120.17,92.108c-0,6.134 -4.975,11.104 -11.104,11.104c-6.134,0 -11.105,-4.97 -11.105,-11.104c0,-6.133 4.971,-11.104 11.105,-11.104c6.129,0 11.104,4.971 11.104,11.104Z" style="fill:none;stroke:#9c8e75;stroke-width:1.04px;"/><path d="M1120.38,61.783c0,6.134 -4.97,11.105 -11.108,11.105c-6.129,-0 -11.104,-4.971 -11.104,-11.105c-0,-6.133 4.975,-11.104 11.104,-11.104c6.138,0 11.108,4.971 11.108,11.104Z" style="fill:#c82030;fill-rule:nonzero;"/><path d="M0,191.047l0,-32.177l14.238,-0c3.945,-0 6.526,0.542 7.744,1.626c1.218,1.084 1.827,3.379 1.827,6.883c-0,3.568 -1.375,5.823 -4.126,6.766l0,0.07c3.411,0.818 5.116,3.34 5.116,7.567c-0,3.411 -0.672,5.807 -2.016,7.19c-1.343,1.383 -3.681,2.075 -7.013,2.075l-15.77,-0Zm3.63,-18.034l9.547,0c3.033,0 4.986,-0.361 5.858,-1.084c0.872,-0.723 1.308,-2.334 1.308,-4.833c0,-2.168 -0.381,-3.571 -1.143,-4.207c-0.762,-0.637 -2.44,-0.955 -5.033,-0.955l-10.537,-0l0,11.079Zm0,14.969l7.709,0l3.276,-0.024c2.766,0 4.577,-0.357 5.434,-1.072c0.856,-0.715 1.284,-2.228 1.284,-4.538c0,-2.876 -0.432,-4.64 -1.296,-5.292c-0.864,-0.652 -3.214,-0.978 -7.048,-0.978l-9.359,-0l0,11.904Z" style="fill:#383838;fill-rule:nonzero;"/><path d="M52.953,184.234l-16.289,-0l-2.475,6.813l-3.842,-0l11.786,-32.177l5.092,-0l12.022,32.177l-3.795,-0l-2.499,-6.813Zm-1.061,-2.735l-7.142,-19.659l-7.048,19.659l14.19,0Z" style="fill:#383838;fill-rule:nonzero;"/><path d="M87.025,180.297l3.606,0l0,1.226c0,4.385 -0.746,7.123 -2.239,8.215c-1.493,1.092 -5.249,1.639 -11.268,1.639c-5.39,-0 -8.816,-0.963 -10.278,-2.888c-1.461,-1.925 -2.192,-6.455 -2.192,-13.59c-0,-5.579 0.165,-9.087 0.495,-10.525c0.33,-1.438 1.273,-2.723 2.829,-3.854c1.823,-1.32 5.759,-1.981 11.81,-1.981c4.101,0 6.863,0.637 8.286,1.91c1.422,1.273 2.133,3.732 2.133,7.378l0.023,0.872l-3.606,0l-0.024,-0.99c0,-2.593 -0.42,-4.258 -1.261,-4.997c-0.841,-0.739 -2.738,-1.108 -5.693,-1.108c-5.186,-0 -8.352,0.432 -9.5,1.296c-1.147,0.865 -1.72,3.261 -1.72,7.19c-0,9.036 0.385,14.333 1.155,15.888c0.77,1.556 3.402,2.334 7.897,2.334c4.274,0 6.942,-0.338 8.003,-1.014c1.06,-0.675 1.591,-2.373 1.591,-5.091l-0.047,-1.91Z" style="fill:#383838;fill-rule:nonzero;"/><path d="M101.743,158.87l-0,14.049l3.182,-0l13.201,-14.049l4.691,-0l-14.71,15.51l16.501,16.667l-4.974,-0l-14.709,-15.064l-3.182,0l-0,15.064l-3.631,-0l0,-32.177l3.631,-0Z" style="fill:#383838;fill-rule:nonzero;"/><path d="M142.084,175.041l13.79,-0c0.063,0.832 0.095,2.003 0.095,3.512c-0,5.799 -0.711,9.386 -2.134,10.761c-1.422,1.375 -5.135,2.063 -11.138,2.063c-5.673,-0 -9.319,-0.814 -10.938,-2.44c-1.618,-1.627 -2.428,-5.277 -2.428,-10.95l-0.023,-4.738l0.023,-2.852c0,-4.762 0.9,-7.929 2.699,-9.5c1.8,-1.572 5.426,-2.358 10.879,-2.358c5.469,0 8.997,0.515 10.585,1.545c1.587,1.029 2.38,3.327 2.38,6.895l0,1.225l-3.559,0l-0,-0.801c-0,-2.625 -0.538,-4.247 -1.615,-4.868c-1.076,-0.621 -3.885,-0.931 -8.427,-0.931c-4.196,-0 -6.821,0.499 -7.874,1.497c-1.052,0.998 -1.579,3.493 -1.579,7.484l-0.047,4.267l0.024,4.597c-0,4.054 0.585,6.545 1.756,7.472c1.17,0.927 4.294,1.391 9.37,1.391c3.882,0 6.282,-0.44 7.201,-1.32c0.92,-0.88 1.379,-3.182 1.379,-6.907c0,-0.298 -0.062,-0.959 -0.188,-1.98l-10.231,-0l0,-3.064Z" style="fill:#383838;fill-rule:nonzero;"/><path d="M163.874,191.047l0,-32.177l15.322,-0c3.458,-0 5.894,0.683 7.308,2.05c1.414,1.368 2.122,3.741 2.122,7.119c-0,2.971 -0.385,5.041 -1.155,6.212c-0.771,1.171 -2.24,1.929 -4.409,2.275l0,0.07c3.411,0.252 5.116,2.326 5.116,6.224l-0,8.227l-3.631,-0l0,-7.402c0,-3.756 -1.626,-5.634 -4.879,-5.634l-12.164,-0l0,13.036l-3.63,-0Zm3.63,-16.101l10.49,0c2.766,0 4.652,-0.42 5.658,-1.261c1.006,-0.841 1.508,-2.424 1.508,-4.75c0,-2.907 -0.373,-4.801 -1.119,-5.681c-0.747,-0.88 -2.346,-1.32 -4.797,-1.32l-11.74,-0l0,13.012Z" style="fill:#383838;fill-rule:nonzero;"/><path d="M209.095,158.539c6.082,0 9.885,0.888 11.41,2.664c1.524,1.776 2.286,6.216 2.286,13.319c0,7.653 -0.731,12.376 -2.192,14.167c-1.462,1.792 -5.296,2.688 -11.504,2.688c-6.176,-0 -10.006,-0.888 -11.491,-2.664c-1.486,-1.776 -2.228,-6.365 -2.228,-13.767l-0,-2.263l0.047,-3.041c0,-4.274 0.963,-7.193 2.888,-8.757c1.925,-1.564 5.52,-2.346 10.784,-2.346Zm-0.023,3.065c-5.092,-0 -8.07,0.566 -8.934,1.697c-0.865,1.132 -1.297,5.013 -1.297,11.645c0,6.648 0.432,10.537 1.297,11.669c0.864,1.131 3.842,1.697 8.934,1.697c5.107,0 8.093,-0.566 8.957,-1.697c0.865,-1.132 1.297,-5.021 1.297,-11.669l0,-2.098l-0.024,-3.041c0,-3.551 -0.597,-5.806 -1.791,-6.765c-1.194,-0.959 -4.008,-1.438 -8.439,-1.438Z" style="fill:#383838;fill-rule:nonzero;"/><path d="M252.195,158.87l3.63,-0l0,22.535c0,4.086 -0.821,6.77 -2.463,8.05c-1.642,1.281 -5.088,1.922 -10.337,1.922c-4.919,-0 -8.262,-0.617 -10.03,-1.851c-1.768,-1.234 -2.652,-3.579 -2.652,-7.036l0,-23.62l3.63,-0l0,22.535c0,3.049 0.495,4.962 1.485,5.74c0.99,0.778 3.426,1.167 7.308,1.167c4.212,0 6.836,-0.381 7.873,-1.143c1.038,-0.762 1.556,-2.684 1.556,-5.764l0,-22.535Z" style="fill:#383838;fill-rule:nonzero;"/><path d="M292.796,158.87l0,32.177l-5.964,-0l-13.484,-21.9l-2.192,-3.606l-2.169,-3.583l-0.094,-0l0.024,1.202l0.023,1.226l0,26.661l-3.63,-0l0,-32.177l5.94,-0l11.763,19.188l3.065,5.044l1.532,2.499l1.509,2.522l0.094,0l-0.024,-1.202l-0.023,-1.226l-0,-26.825l3.63,-0Z" style="fill:#383838;fill-rule:nonzero;"/><path d="M302.304,191.047l0,-32.177l14.899,-0c4.604,-0 7.724,1.013 9.358,3.04c1.634,2.028 2.452,5.909 2.452,11.645c-0,6.978 -0.727,11.638 -2.181,13.979c-1.454,2.342 -4.357,3.513 -8.71,3.513l-15.818,-0Zm3.631,-3.065l10.49,0c3.85,0 6.333,-0.77 7.449,-2.31c1.115,-1.54 1.673,-4.974 1.673,-10.301c0,-5.847 -0.483,-9.547 -1.449,-11.103c-0.967,-1.556 -3.281,-2.334 -6.943,-2.334l-11.22,-0l-0,26.048Z" style="fill:#383838;fill-rule:nonzero;"/><path d="M374.737,167.591l-3.606,0c-0,-2.593 -0.432,-4.239 -1.297,-4.938c-0.864,-0.699 -2.899,-1.049 -6.105,-1.049c-3.803,-0 -6.255,0.334 -7.355,1.002c-1.1,0.668 -1.65,2.157 -1.65,4.467c0,2.593 0.432,4.172 1.297,4.738c0.864,0.566 3.433,0.951 7.708,1.155c5.013,0.22 8.199,0.857 9.559,1.909c1.359,1.053 2.039,3.411 2.039,7.072c-0,3.961 -0.782,6.522 -2.346,7.685c-1.563,1.163 -5.017,1.745 -10.36,1.745c-4.636,-0 -7.72,-0.586 -9.252,-1.757c-1.533,-1.17 -2.299,-3.532 -2.299,-7.083l-0.023,-1.438l3.606,-0l0,0.801c0,2.876 0.44,4.664 1.32,5.363c0.88,0.699 3.136,1.049 6.766,1.049c4.164,0 6.726,-0.35 7.685,-1.049c0.958,-0.699 1.438,-2.565 1.438,-5.599c-0,-1.964 -0.327,-3.272 -0.979,-3.924c-0.652,-0.653 -2.015,-1.042 -4.09,-1.167l-3.771,-0.189l-3.583,-0.188c-5.454,-0.378 -8.18,-3.206 -8.18,-8.487c-0,-3.661 0.793,-6.105 2.381,-7.331c1.587,-1.226 4.754,-1.839 9.5,-1.839c4.808,0 7.944,0.57 9.405,1.71c1.462,1.139 2.192,3.587 2.192,7.342Z" style="fill:#383838;fill-rule:nonzero;"/><path d="M404.165,180.297l3.607,0l-0,1.226c-0,4.385 -0.747,7.123 -2.24,8.215c-1.493,1.092 -5.249,1.639 -11.268,1.639c-5.39,-0 -8.816,-0.963 -10.278,-2.888c-1.461,-1.925 -2.192,-6.455 -2.192,-13.59c0,-5.579 0.165,-9.087 0.495,-10.525c0.33,-1.438 1.273,-2.723 2.829,-3.854c1.823,-1.32 5.76,-1.981 11.81,-1.981c4.102,0 6.864,0.637 8.286,1.91c1.422,1.273 2.133,3.732 2.133,7.378l0.024,0.872l-3.607,0l-0.023,-0.99c-0,-2.593 -0.421,-4.258 -1.262,-4.997c-0.84,-0.739 -2.738,-1.108 -5.692,-1.108c-5.186,-0 -8.353,0.432 -9.5,1.296c-1.148,0.865 -1.721,3.261 -1.721,7.19c-0,9.036 0.385,14.333 1.155,15.888c0.77,1.556 3.402,2.334 7.897,2.334c4.274,0 6.942,-0.338 8.003,-1.014c1.061,-0.675 1.591,-2.373 1.591,-5.091l-0.047,-1.91Z" style="fill:#383838;fill-rule:nonzero;"/><path d="M415.253,191.047l-0,-32.177l15.322,-0c3.457,-0 5.893,0.683 7.308,2.05c1.414,1.368 2.121,3.741 2.121,7.119c0,2.971 -0.385,5.041 -1.155,6.212c-0.77,1.171 -2.239,1.929 -4.408,2.275l-0,0.07c3.41,0.252 5.115,2.326 5.115,6.224l0,8.227l-3.63,-0l0,-7.402c0,-3.756 -1.626,-5.634 -4.88,-5.634l-12.163,-0l-0,13.036l-3.63,-0Zm3.63,-16.101l10.49,0c2.766,0 4.651,-0.42 5.657,-1.261c1.006,-0.841 1.509,-2.424 1.509,-4.75c-0,-2.907 -0.373,-4.801 -1.12,-5.681c-0.746,-0.88 -2.345,-1.32 -4.797,-1.32l-11.739,-0l-0,13.012Z" style="fill:#383838;fill-rule:nonzero;"/><path d="M451.045,161.934l-0,10.961l16.336,0l-0,3.065l-16.336,-0l-0,12.022l17.043,0l-0,3.065l-20.673,-0l-0,-32.177l20.673,-0l-0,3.064l-17.043,-0Z" style="fill:#383838;fill-rule:nonzero;"/><path d="M478.469,161.934l-0,10.961l16.336,0l-0,3.065l-16.336,-0l-0,12.022l17.043,0l-0,3.065l-20.674,-0l0,-32.177l20.674,-0l-0,3.064l-17.043,-0Z" style="fill:#383838;fill-rule:nonzero;"/><path d="M531.045,158.87l-0,32.177l-5.964,-0l-13.484,-21.9l-2.192,-3.606l-2.169,-3.583l-0.094,-0l0.023,1.202l0.024,1.226l-0,26.661l-3.63,-0l-0,-32.177l5.94,-0l11.763,19.188l3.064,5.044l1.533,2.499l1.508,2.522l0.094,0l-0.023,-1.202l-0.024,-1.226l0,-26.825l3.631,-0Z" style="fill:#383838;fill-rule:nonzero;"/><rect x="540.553" y="158.87" width="3.63" height="32.177" style="fill:#383838;fill-rule:nonzero;"/><path d="M581.248,158.87l0,32.177l-5.964,-0l-13.483,-21.9l-2.193,-3.606l-2.168,-3.583l-0.095,-0l0.024,1.202l0.023,1.226l0,26.661l-3.63,-0l0,-32.177l5.941,-0l11.762,19.188l3.065,5.044l1.532,2.499l1.509,2.522l0.094,0l-0.023,-1.202l-0.024,-1.226l0,-26.825l3.63,-0Z" style="fill:#383838;fill-rule:nonzero;"/><path d="M602.237,175.041l13.79,-0c0.063,0.832 0.094,2.003 0.094,3.512c0,5.799 -0.711,9.386 -2.133,10.761c-1.423,1.375 -5.135,2.063 -11.139,2.063c-5.673,-0 -9.319,-0.814 -10.937,-2.44c-1.619,-1.627 -2.428,-5.277 -2.428,-10.95l-0.024,-4.738l0.024,-2.852c-0,-4.762 0.899,-7.929 2.699,-9.5c1.799,-1.572 5.425,-2.358 10.879,-2.358c5.469,0 8.997,0.515 10.584,1.545c1.587,1.029 2.381,3.327 2.381,6.895l-0,1.225l-3.56,0l0,-0.801c0,-2.625 -0.538,-4.247 -1.615,-4.868c-1.076,-0.621 -3.885,-0.931 -8.427,-0.931c-4.196,-0 -6.82,0.499 -7.873,1.497c-1.053,0.998 -1.58,3.493 -1.58,7.484l-0.047,4.267l0.024,4.597c-0,4.054 0.585,6.545 1.756,7.472c1.171,0.927 4.294,1.391 9.37,1.391c3.882,0 6.282,-0.44 7.202,-1.32c0.919,-0.88 1.379,-3.182 1.379,-6.907c-0,-0.298 -0.063,-0.959 -0.189,-1.98l-10.23,-0l-0,-3.064Z" style="fill:#383838;fill-rule:nonzero;"/><path d="M661.539,167.591l-3.606,0c-0,-2.593 -0.432,-4.239 -1.297,-4.938c-0.864,-0.699 -2.899,-1.049 -6.105,-1.049c-3.803,-0 -6.255,0.334 -7.355,1.002c-1.1,0.668 -1.65,2.157 -1.65,4.467c0,2.593 0.432,4.172 1.297,4.738c0.864,0.566 3.433,0.951 7.708,1.155c5.013,0.22 8.199,0.857 9.559,1.909c1.359,1.053 2.039,3.411 2.039,7.072c-0,3.961 -0.782,6.522 -2.346,7.685c-1.563,1.163 -5.017,1.745 -10.36,1.745c-4.636,-0 -7.72,-0.586 -9.252,-1.757c-1.533,-1.17 -2.299,-3.532 -2.299,-7.083l-0.023,-1.438l3.606,-0l0,0.801c0,2.876 0.44,4.664 1.32,5.363c0.88,0.699 3.136,1.049 6.766,1.049c4.164,0 6.726,-0.35 7.685,-1.049c0.958,-0.699 1.438,-2.565 1.438,-5.599c-0,-1.964 -0.327,-3.272 -0.979,-3.924c-0.652,-0.653 -2.015,-1.042 -4.09,-1.167l-3.771,-0.189l-3.583,-0.188c-5.454,-0.378 -8.18,-3.206 -8.18,-8.487c-0,-3.661 0.793,-6.105 2.381,-7.331c1.587,-1.226 4.754,-1.839 9.5,-1.839c4.808,0 7.944,0.57 9.405,1.71c1.462,1.139 2.192,3.587 2.192,7.342Z" style="fill:#383838;fill-rule:nonzero;"/><path d="M672.203,161.934l-0,10.961l16.336,0l-0,3.065l-16.336,-0l-0,12.022l17.043,0l0,3.065l-20.673,-0l-0,-32.177l20.673,-0l0,3.064l-17.043,-0Z" style="fill:#383838;fill-rule:nonzero;"/><path d="M697.293,191.047l-0,-32.177l15.322,-0c3.458,-0 5.894,0.683 7.308,2.05c1.414,1.368 2.121,3.741 2.121,7.119c0,2.971 -0.385,5.041 -1.155,6.212c-0.77,1.171 -2.239,1.929 -4.408,2.275l0,0.07c3.41,0.252 5.116,2.326 5.116,6.224l-0,8.227l-3.631,-0l0,-7.402c0,-3.756 -1.626,-5.634 -4.879,-5.634l-12.164,-0l0,13.036l-3.63,-0Zm3.63,-16.101l10.49,0c2.766,0 4.652,-0.42 5.658,-1.261c1.005,-0.841 1.508,-2.424 1.508,-4.75c0,-2.907 -0.373,-4.801 -1.119,-5.681c-0.747,-0.88 -2.346,-1.32 -4.798,-1.32l-11.739,-0l0,13.012Z" style="fill:#383838;fill-rule:nonzero;"/><path d="M751.637,158.87l3.889,-0l-11.385,32.177l-5.186,-0l-11.504,-32.177l3.866,-0l8.581,24.303l0.848,2.475c0.315,0.959 0.574,1.784 0.778,2.475l0.094,0c0.472,-1.587 0.998,-3.221 1.58,-4.903l8.439,-24.35Z" style="fill:#383838;fill-rule:nonzero;"/><rect x="761.735" y="158.87" width="3.63" height="32.177" style="fill:#383838;fill-rule:nonzero;"/><path d="M796.042,180.297l3.606,0l0,1.226c0,4.385 -0.746,7.123 -2.239,8.215c-1.493,1.092 -5.249,1.639 -11.268,1.639c-5.39,-0 -8.816,-0.963 -10.278,-2.888c-1.461,-1.925 -2.192,-6.455 -2.192,-13.59c-0,-5.579 0.165,-9.087 0.495,-10.525c0.33,-1.438 1.273,-2.723 2.829,-3.854c1.823,-1.32 5.759,-1.981 11.81,-1.981c4.101,0 6.863,0.637 8.286,1.91c1.422,1.273 2.133,3.732 2.133,7.378l0.024,0.872l-3.607,0l-0.024,-0.99c0,-2.593 -0.42,-4.258 -1.261,-4.997c-0.841,-0.739 -2.738,-1.108 -5.693,-1.108c-5.186,-0 -8.352,0.432 -9.5,1.296c-1.147,0.865 -1.72,3.261 -1.72,7.19c-0,9.036 0.385,14.333 1.155,15.888c0.77,1.556 3.402,2.334 7.897,2.334c4.274,0 6.942,-0.338 8.003,-1.014c1.06,-0.675 1.591,-2.373 1.591,-5.091l-0.047,-1.91Z" style="fill:#383838;fill-rule:nonzero;"/><path d="M809.463,161.934l0,10.961l16.336,0l0,3.065l-16.336,-0l0,12.022l17.043,0l0,3.065l-20.673,-0l-0,-32.177l20.673,-0l0,3.064l-17.043,-0Z" style="fill:#383838;fill-rule:nonzero;"/><path d="M856.617,167.591l-3.606,0c-0,-2.593 -0.432,-4.239 -1.297,-4.938c-0.864,-0.699 -2.899,-1.049 -6.105,-1.049c-3.803,-0 -6.255,0.334 -7.355,1.002c-1.1,0.668 -1.65,2.157 -1.65,4.467c-0,2.593 0.432,4.172 1.297,4.738c0.864,0.566 3.433,0.951 7.708,1.155c5.013,0.22 8.199,0.857 9.559,1.909c1.359,1.053 2.039,3.411 2.039,7.072c-0,3.961 -0.782,6.522 -2.346,7.685c-1.563,1.163 -5.017,1.745 -10.36,1.745c-4.636,-0 -7.72,-0.586 -9.252,-1.757c-1.533,-1.17 -2.299,-3.532 -2.299,-7.083l-0.023,-1.438l3.606,-0l0,0.801c0,2.876 0.44,4.664 1.32,5.363c0.88,0.699 3.136,1.049 6.766,1.049c4.164,0 6.726,-0.35 7.685,-1.049c0.958,-0.699 1.437,-2.565 1.437,-5.599c0,-1.964 -0.326,-3.272 -0.978,-3.924c-0.652,-0.653 -2.015,-1.042 -4.09,-1.167l-3.771,-0.189l-3.583,-0.188c-5.454,-0.378 -8.18,-3.206 -8.18,-8.487c-0,-3.661 0.793,-6.105 2.381,-7.331c1.587,-1.226 4.754,-1.839 9.5,-1.839c4.808,0 7.944,0.57 9.405,1.71c1.462,1.139 2.192,3.587 2.192,7.342Z" style="fill:#383838;fill-rule:nonzero;"/></g></svg>