<?xml version="1.0" encoding="utf-8"?>
<!-- Generator: Adobe Illustrator 16.0.0, SVG Export Plug-In . SVG Version: 6.00 Build 0)  -->
<!DOCTYPE svg PUBLIC "-//W3C//DTD SVG 1.1//EN" "http://www.w3.org/Graphics/SVG/1.1/DTD/svg11.dtd" [
	<!ENTITY ns_flows "http://ns.adobe.com/Flows/1.0/">
	<!ENTITY ns_extend "http://ns.adobe.com/Extensibility/1.0/">
	<!ENTITY ns_ai "http://ns.adobe.com/AdobeIllustrator/10.0/">
	<!ENTITY ns_graphs "http://ns.adobe.com/Graphs/1.0/">
	<!ENTITY ns_vars "http://ns.adobe.com/Variables/1.0/">
	<!ENTITY ns_imrep "http://ns.adobe.com/ImageReplacement/1.0/">
	<!ENTITY ns_sfw "http://ns.adobe.com/SaveForWeb/1.0/">
	<!ENTITY ns_custom "http://ns.adobe.com/GenericCustomNamespace/1.0/">
	<!ENTITY ns_adobe_xpath "http://ns.adobe.com/XPath/1.0/">
]>
<svg version="1.1" id="Layer_1" xmlns:x="&ns_extend;" xmlns:i="&ns_ai;" xmlns:graph="&ns_graphs;"
	 xmlns="http://www.w3.org/2000/svg" xmlns:xlink="http://www.w3.org/1999/xlink" xmlns:a="http://ns.adobe.com/AdobeSVGViewerExtensions/3.0/"
	 x="0px" y="0px" width="150px" height="150px" viewBox="0 0 150 150" enable-background="new 0 0 150 150" xml:space="preserve">
<metadata>
	<sfw  xmlns="&ns_sfw;">
		<slices></slices>
		<sliceSourceBounds  width="146" height="123.3" y="-135.9" x="2.2" bottomLeftOrigin="true"></sliceSourceBounds>
	</sfw>
</metadata>
<g>
	<g>
		<g>
			<path fill="#0C2344" d="M139.5,92.2H74.3L39.8,62.6L10.5,87.9v48.1h19.1v-32.6h19.8v32.6h90.1V92.2z M121.3,122.6H96.7v-19.3
				h24.6V122.6z"/>
			<path fill="#0C2344" d="M105.9,55.4H39.3L2.2,87.2l1.6,1.9l36-30.9l35,29.7h73.3L105.9,55.4z M127.8,74.7h-10.9l-9.3-7.2h10.7
				L127.8,74.7z M91.6,67.5h11.2l9.3,7.2h-11.7L91.6,67.5z M95.9,74.7H83.5L75,67.5h12.1L95.9,74.7z M105.1,57.6l9.3,7h-10.6l-9-7
				H105.1z M90.1,57.6l9,7H88.1l-8.5-7H90.1z M75.1,57.6l8.5,7h-12l-8.2-7H75.1z M45.4,57.6h13.5l8.2,7H53.7L45.4,57.6z M57.1,67.5
				h13.5l8.5,7.2H65.6L57.1,67.5z M78.5,85.7L69,77.6h13.5l9.5,8.1H78.5z M96.5,85.7l-9.5-8.1h12.4l9.8,8.1H96.5z M113.8,85.7
				l-9.8-8.1h11.9l10.4,8.1H113.8z M120.6,77.6h11l10.7,8.1H131L120.6,77.6z"/>
		</g>
		<g>
			<path fill="#0C2344" d="M84.2,46.1c0-8.5-7-15.4-15.6-15.4c-8.5,0-15.4,7-15.4,15.6c0,1.7,0.3,3.4,0.9,5h29.2
				C83.9,49.6,84.3,47.9,84.2,46.1z"/>
			<path fill="#0C2344" d="M87.9,41l5.4-4.8l-7.6,0.3l6.7-14.1L78.6,29l0.4-7.3l-5.1,5.6l-5.3-14.7L63.6,27l-4.8-5.4l0.3,7.6
				L45,22.5l6.6,13.8l-7.3-0.4l5.6,5.1l-14.7,5.3l14.1,5H52c-0.5-1.6-0.7-3.2-0.8-5c-0.1-9.6,7.8-17.5,17.4-17.6
				c9.7-0.1,17.5,7.8,17.6,17.4c0,1.8-0.3,3.5-0.8,5.2h2.4l14.4-5.2L87.9,41z"/>
		</g>
	</g>
</g>
</svg>
