<?xml version="1.0" encoding="utf-8"?>
<!-- Generator: Adobe Illustrator 16.0.0, SVG Export Plug-In . SVG Version: 6.00 Build 0)  -->
<!DOCTYPE svg PUBLIC "-//W3C//DTD SVG 1.1//EN" "http://www.w3.org/Graphics/SVG/1.1/DTD/svg11.dtd" [
	<!ENTITY ns_flows "http://ns.adobe.com/Flows/1.0/">
	<!ENTITY ns_extend "http://ns.adobe.com/Extensibility/1.0/">
	<!ENTITY ns_ai "http://ns.adobe.com/AdobeIllustrator/10.0/">
	<!ENTITY ns_graphs "http://ns.adobe.com/Graphs/1.0/">
	<!ENTITY ns_vars "http://ns.adobe.com/Variables/1.0/">
	<!ENTITY ns_imrep "http://ns.adobe.com/ImageReplacement/1.0/">
	<!ENTITY ns_sfw "http://ns.adobe.com/SaveForWeb/1.0/">
	<!ENTITY ns_custom "http://ns.adobe.com/GenericCustomNamespace/1.0/">
	<!ENTITY ns_adobe_xpath "http://ns.adobe.com/XPath/1.0/">
]>
<svg version="1.1" id="Layer_1" xmlns:x="&ns_extend;" xmlns:i="&ns_ai;" xmlns:graph="&ns_graphs;"
	 xmlns="http://www.w3.org/2000/svg" xmlns:xlink="http://www.w3.org/1999/xlink" xmlns:a="http://ns.adobe.com/AdobeSVGViewerExtensions/3.0/"
	 x="0px" y="0px" width="150px" height="150px" viewBox="0 0 150 150" enable-background="new 0 0 150 150" xml:space="preserve">
<metadata>
	<sfw  xmlns="&ns_sfw;">
		<slices></slices>
		<sliceSourceBounds  width="143.3" height="121.8" y="-138.5" x="4.5" bottomLeftOrigin="true"></sliceSourceBounds>
	</sfw>
</metadata>
<g>
	<g>
		<path fill="#0C2344" d="M143.1,26.2l4.8-5l-4.8-4.5H47.9c-15.2,0-27.6,12.4-27.6,27.6v77.1c-0.8,0-1.7,0-2.5,0
			c-2.9,0-5.8,2.1-5.8,6.1c0,1.2-1.2,1.7-1.8,1.7c-3.5,0-5.7,3.6-5.7,9.3c4.6,0,37.2,0,41.8,0c0-5.7-2.2-9.3-5.7-9.3
			c-0.5,0-1.8-0.6-1.8-1.7c0-4-3-6.1-5.8-6.1c-1,0-2.1,0-3.2,0V44.3c0-10,8.1-18.1,18.1-18.1h13v10.1h-5.3
			c-7.3,0-13.3,5.9-13.3,13.3v42.6c0,7.3,5.9,13.3,13.3,13.3h73c7.3,0,13.3-6,13.3-13.3V49.6c0-7.3-5.9-13.3-13.3-13.3h-8.8V26.2
			H143.1z M137.8,49.6v42.6c0,5-4.1,9.1-9.1,9.1h-73c-5,0-9.1-4.1-9.1-9.1V49.6c0-5,4.1-9.1,9.1-9.1h73
			C133.7,40.5,137.8,44.6,137.8,49.6z M116.1,36.3H64.7V26.2h51.3V36.3z"/>
		<path fill="#0C2344" d="M104.8,57.6c0.2-0.2,0.4-0.3,0.7-0.5c0.5-0.2,1-0.3,1.7-0.3h1.3v-4.2l-0.9-0.1c-0.2,0-0.5-0.1-0.8-0.1
			c-0.9,0-1.7,0.2-2.4,0.6c0,0,0,0-0.1,0l-0.1-0.4h-4v12.5h4.6V57.6z"/>
		<polygon fill="#0C2344" points="78.7,59 84.3,59 84.3,54.8 78.7,54.8 78.7,53.1 85.3,53.1 85.3,48.8 74,48.8 74,65.3 78.7,65.3 		
			"/>
		<path fill="#0C2344" d="M87.7,63.7c0.6,0.6,1.2,1,2,1.4c0.8,0.3,1.6,0.5,2.6,0.5c0.9,0,1.8-0.2,2.6-0.5c0.8-0.3,1.5-0.8,2-1.4
			c0.6-0.6,1-1.3,1.3-2.1c0.3-0.8,0.4-1.7,0.4-2.6c0-0.9-0.1-1.8-0.4-2.6c-0.3-0.8-0.7-1.5-1.3-2.1c-0.6-0.6-1.2-1-2-1.4
			c-1.5-0.6-3.6-0.6-5.1,0c-0.8,0.3-1.5,0.8-2,1.4c-0.6,0.6-1,1.3-1.3,2.1c-0.3,0.8-0.4,1.7-0.4,2.6c0,0.9,0.1,1.8,0.4,2.6
			C86.7,62.4,87.1,63.1,87.7,63.7z M90.9,57.9c0.1-0.3,0.2-0.5,0.4-0.7c0.1-0.2,0.3-0.3,0.4-0.3c0.2-0.1,0.4-0.1,0.6-0.1
			c0.2,0,0.4,0,0.6,0.1c0.2,0.1,0.3,0.2,0.4,0.3c0.1,0.2,0.3,0.4,0.4,0.7c0.1,0.3,0.2,0.7,0.2,1.2c0,0.4-0.1,0.8-0.2,1.2
			c-0.1,0.3-0.2,0.5-0.3,0.7c-0.1,0.2-0.3,0.3-0.5,0.4c-0.4,0.2-0.8,0.2-1.2,0c-0.2-0.1-0.3-0.2-0.5-0.4c-0.1-0.2-0.3-0.4-0.4-0.7
			c-0.1-0.3-0.1-0.7-0.1-1.2C90.7,58.6,90.8,58.2,90.9,57.9z"/>
		<path fill="#0C2344" d="M62.2,90.7c1,0.2,2,0.3,3,0.3c1.2,0,2.3-0.1,3.3-0.4c1-0.3,2-0.6,2.7-1.2c0.8-0.6,1.4-1.3,1.8-2.1
			c0.4-0.8,0.6-1.8,0.6-2.9c0-1.1-0.2-2-0.6-2.8c-0.4-0.7-0.9-1.4-1.6-1.8c-0.6-0.4-1.3-0.8-2.1-1c-0.7-0.2-1.5-0.4-2.2-0.6
			c-0.5-0.1-0.9-0.2-1.3-0.3c-0.3-0.1-0.6-0.2-0.9-0.4c-0.2-0.1-0.3-0.2-0.4-0.4c-0.1-0.2-0.1-0.4-0.1-0.6c0-0.5,0.2-0.7,0.4-0.9
			c0.7-0.5,2.3-0.5,4.1-0.2c0.8,0.1,1.6,0.4,2.5,0.7l1.4,0.6v-5l-0.6-0.3c-0.8-0.3-1.6-0.6-2.7-0.8c-2.1-0.4-4.2-0.4-5.9,0.1
			c-0.9,0.3-1.7,0.7-2.3,1.2c-0.7,0.6-1.2,1.3-1.6,2.1c-0.4,0.8-0.6,1.8-0.6,2.9c0,1,0.2,1.9,0.5,2.6c0.3,0.7,0.8,1.3,1.4,1.8
			c0.6,0.4,1.2,0.8,2,1c0.7,0.2,1.4,0.4,2.1,0.6c0.5,0.1,1,0.2,1.5,0.3c0.4,0.1,0.8,0.2,1.1,0.4c0.2,0.1,0.4,0.2,0.5,0.4
			c0.1,0.1,0.1,0.3,0.1,0.5c0,0.3-0.1,0.5-0.2,0.7c-0.1,0.2-0.3,0.4-0.6,0.5c-0.3,0.1-0.6,0.3-1,0.3c-1.2,0.2-2.5,0.1-3.7-0.1
			c-0.8-0.2-1.5-0.4-2.3-0.8L59,84.5v4.9l0.5,0.3C60.2,90.1,61.1,90.4,62.2,90.7z"/>
		<path fill="#0C2344" d="M82.7,70.9l-7.8,19.8h5.7l1.7-4.5h5.2l1.7,4.5h5.7L87,70.9H82.7z M84.1,81.3l0.1-0.2
			c0.2-0.6,0.5-1.2,0.7-1.9c0.3,0.7,0.5,1.3,0.7,1.9l0.1,0.2H84.1z"/>
		<polygon fill="#0C2344" points="103.1,70.9 97.8,70.9 97.8,90.6 111.3,90.6 111.3,85.8 103.1,85.8 		"/>
		<polygon fill="#0C2344" points="127.6,85.8 118.9,85.8 118.9,82.9 126,82.9 126,78.2 118.9,78.2 118.9,75.7 127.1,75.7 
			127.1,70.9 113.6,70.9 113.6,90.6 127.6,90.6 		"/>
	</g>
</g>
</svg>
