<?xml version="1.0" encoding="utf-8"?>
<!-- Generator: Adobe Illustrator 16.0.0, SVG Export Plug-In . SVG Version: 6.00 Build 0)  -->
<!DOCTYPE svg PUBLIC "-//W3C//DTD SVG 1.1//EN" "http://www.w3.org/Graphics/SVG/1.1/DTD/svg11.dtd" [
	<!ENTITY ns_flows "http://ns.adobe.com/Flows/1.0/">
	<!ENTITY ns_extend "http://ns.adobe.com/Extensibility/1.0/">
	<!ENTITY ns_ai "http://ns.adobe.com/AdobeIllustrator/10.0/">
	<!ENTITY ns_graphs "http://ns.adobe.com/Graphs/1.0/">
	<!ENTITY ns_vars "http://ns.adobe.com/Variables/1.0/">
	<!ENTITY ns_imrep "http://ns.adobe.com/ImageReplacement/1.0/">
	<!ENTITY ns_sfw "http://ns.adobe.com/SaveForWeb/1.0/">
	<!ENTITY ns_custom "http://ns.adobe.com/GenericCustomNamespace/1.0/">
	<!ENTITY ns_adobe_xpath "http://ns.adobe.com/XPath/1.0/">
]>
<svg version="1.1" id="Layer_1" xmlns:x="&ns_extend;" xmlns:i="&ns_ai;" xmlns:graph="&ns_graphs;"
	 xmlns="http://www.w3.org/2000/svg" xmlns:xlink="http://www.w3.org/1999/xlink" xmlns:a="http://ns.adobe.com/AdobeSVGViewerExtensions/3.0/"
	 x="0px" y="0px" width="150px" height="150px" viewBox="0 0 150 150" enable-background="new 0 0 150 150" xml:space="preserve">
<metadata>
	<sfw  xmlns="&ns_sfw;">
		<slices></slices>
		<sliceSourceBounds  width="144.1" height="131.1" y="9.8" x="2.9" bottomLeftOrigin="true"></sliceSourceBounds>
	</sfw>
</metadata>
<g>
	<path fill="#002245" d="M124.2,67.4h-9c-0.7,1.6-2,3-3.6,3.8v42.5h16.1V71.2C126.2,70.4,125,69.1,124.2,67.4z"/>
	<path fill="#002245" d="M35.7,67.4h-9c-0.7,1.6-2,3-3.6,3.8v42.5h16.1V71.2C37.7,70.4,36.4,69.1,35.7,67.4z"/>
	<path fill="#002245" d="M80,67.4h-9c-0.7,1.6-2,3-3.6,3.8v42.5h16.1V71.2C81.9,70.4,80.7,69.1,80,67.4z"/>
	<path fill="#002245" d="M131.2,69.1c2.6,0,4.8-2.1,4.8-4.7c0-2.6-2.1-4.8-4.8-4.8h-22.9c-2.6,0-4.7,2.1-4.7,4.8
		c0,2.6,2.1,4.7,4.7,4.7c2.6,0,4.6-2,4.7-4.6h13.5C126.6,67.1,128.7,69.1,131.2,69.1z M131.2,62.8c0.9,0,1.6,0.7,1.6,1.6
		s-0.7,1.6-1.6,1.6c-0.9,0-1.6-0.7-1.6-1.6S130.3,62.8,131.2,62.8z M108.2,66c-0.9,0-1.6-0.7-1.6-1.6s0.7-1.6,1.6-1.6
		c0.9,0,1.6,0.7,1.6,1.6S109.1,66,108.2,66z"/>
	<path fill="#002245" d="M86.9,69.1c2.6,0,4.7-2.1,4.7-4.7c0-2.6-2.1-4.8-4.7-4.8H64c-2.6,0-4.7,2.1-4.7,4.8c0,2.6,2.1,4.7,4.7,4.7
		c2.6,0,4.6-2,4.7-4.6h13.5C82.3,67.1,84.4,69.1,86.9,69.1z M86.9,62.8c0.9,0,1.6,0.7,1.6,1.6S87.8,66,86.9,66
		c-0.9,0-1.6-0.7-1.6-1.6S86,62.8,86.9,62.8z M63.9,66c-0.9,0-1.6-0.7-1.6-1.6s0.7-1.6,1.6-1.6c0.9,0,1.6,0.7,1.6,1.6
		S64.8,66,63.9,66z"/>
	<path fill="#002245" d="M42.7,69.1c2.6,0,4.8-2.1,4.8-4.7c0-2.6-2.1-4.8-4.8-4.8H19.7c-2.6,0-4.7,2.1-4.7,4.8
		c0,2.6,2.1,4.7,4.7,4.7c2.6,0,4.6-2,4.7-4.6h13.5C38,67.1,40.1,69.1,42.7,69.1z M42.7,62.8c0.9,0,1.6,0.7,1.6,1.6S43.6,66,42.7,66
		c-0.9,0-1.6-0.7-1.6-1.6S41.8,62.8,42.7,62.8z M19.6,66c-0.9,0-1.6-0.7-1.6-1.6s0.7-1.6,1.6-1.6c0.9,0,1.6,0.7,1.6,1.6
		S20.5,66,19.6,66z"/>
	<path fill="#002245" d="M101.1,123.8c0,1.1,0.9,1.9,1.9,1.9h33.4c1.1,0,1.9-0.9,1.9-1.9c0-1.1-0.9-1.9-1.9-1.9h-4.2
		c1.1,0,1.9-0.9,1.9-1.9c0-1.1-0.9-1.9-1.9-1.9h-25.7c-1.1,0-1.9,0.9-1.9,1.9c0,1.1,0.9,1.9,1.9,1.9h-3.5
		C102,121.9,101.1,122.8,101.1,123.8z"/>
	<path fill="#002245" d="M56.9,123.8c0,1.1,0.9,1.9,1.9,1.9h33.4c1.1,0,1.9-0.9,1.9-1.9c0-1.1-0.9-1.9-1.9-1.9h-3.8
		c1.1,0,1.9-0.9,1.9-1.9c0-1.1-0.9-1.9-1.9-1.9H62.6c-1.1,0-1.9,0.9-1.9,1.9c0,1.1,0.9,1.9,1.9,1.9h-3.8
		C57.7,121.9,56.9,122.8,56.9,123.8z"/>
	<path fill="#002245" d="M12.6,123.8c0,1.1,0.9,1.9,1.9,1.9h33.4c1.1,0,1.9-0.9,1.9-1.9c0-1.1-0.9-1.9-1.9-1.9h-3.8
		c1.1,0,1.9-0.9,1.9-1.9c0-1.1-0.9-1.9-1.9-1.9H18.3c-1.1,0-1.9,0.9-1.9,1.9c0,1.1,0.9,1.9,1.9,1.9h-3.8
		C13.4,121.9,12.6,122.8,12.6,123.8z"/>
	<path fill="#002245" d="M146.8,45.6L75.5,9.6L4.1,45.6v8.9h142.7V45.6z M31.2,44l44.3-21.3L119.8,44H31.2z"/>
	<rect x="3.4" y="129.7" fill="#002245" width="144.1" height="11.1"/>
</g>
</svg>
