<?xml version="1.0" encoding="utf-8"?>
<!-- Generator: Adobe Illustrator 16.0.0, SVG Export Plug-In . SVG Version: 6.00 Build 0)  -->
<!DOCTYPE svg PUBLIC "-//W3C//DTD SVG 1.1//EN" "http://www.w3.org/Graphics/SVG/1.1/DTD/svg11.dtd" [
	<!ENTITY ns_flows "http://ns.adobe.com/Flows/1.0/">
	<!ENTITY ns_extend "http://ns.adobe.com/Extensibility/1.0/">
	<!ENTITY ns_ai "http://ns.adobe.com/AdobeIllustrator/10.0/">
	<!ENTITY ns_graphs "http://ns.adobe.com/Graphs/1.0/">
	<!ENTITY ns_vars "http://ns.adobe.com/Variables/1.0/">
	<!ENTITY ns_imrep "http://ns.adobe.com/ImageReplacement/1.0/">
	<!ENTITY ns_sfw "http://ns.adobe.com/SaveForWeb/1.0/">
	<!ENTITY ns_custom "http://ns.adobe.com/GenericCustomNamespace/1.0/">
	<!ENTITY ns_adobe_xpath "http://ns.adobe.com/XPath/1.0/">
]>
<svg version="1.1" id="Layer_1" xmlns:x="&ns_extend;" xmlns:i="&ns_ai;" xmlns:graph="&ns_graphs;"
	 xmlns="http://www.w3.org/2000/svg" xmlns:xlink="http://www.w3.org/1999/xlink" xmlns:a="http://ns.adobe.com/AdobeSVGViewerExtensions/3.0/"
	 x="0px" y="0px" width="150px" height="150px" viewBox="0 0 150 150" enable-background="new 0 0 150 150" xml:space="preserve">
<metadata>
	<sfw  xmlns="&ns_sfw;">
		<slices></slices>
		<sliceSourceBounds  width="141.4" height="82.1" y="-116.2" x="4.4" bottomLeftOrigin="true"></sliceSourceBounds>
	</sfw>
</metadata>
<g>
	<path fill="#0C2344" d="M145.6,95.7c-0.5-3.2-1.7-10.9-2-11.9c-0.1-0.4-0.6-2.5-1.7-3.4c-2.3-1.8-6.6-5-7.5-5.8
		c-0.3-0.3-0.7-0.5-1.1-0.5h-1.8v-2.4h6c-0.2-0.5-0.4-1-0.4-1.6h-14.5v1.6h1.4v3.8h-0.8c-0.4,0-0.8,0.3-1.1,0.5c0,0-0.1,0.1-0.2,0.2
		c-0.5-1.7-0.7-2.3-1-3.4c-0.1-0.2-0.3-0.8-0.7-0.7c-0.4,0.1-0.1,0.7-1.3,1.1c-1,0.3-1.2-0.3-1.7-0.2c-0.3,0.1-0.2,0.7-0.1,0.9
		c0.5,1.5,1.1,3.8,1.5,5.2c-3.2,2.8-7.6,6.8-9.1,8c-0.5,0.4-0.6,1-0.6,1.4v1.5H61.6c-0.9-3.3-2.1-7.6-3-11.1
		c-0.4-1.6-0.9-2.7-2.4-2.7h0C56,75.8,53,64.1,52.7,62.9c1.2-1.3,2-3,2-4.9c0-3.9-3.2-7-7-7c-3.9,0-7,3.2-7,7c0,3.9,3.2,7,7,7
		c0.4,0,0.7-0.1,1-0.1c0.7,2.7,2.2,9,2.8,11.4h-0.3c-0.8,0-1.3,0.4-1.8,1c-0.5,0.7-2.1,2.8-2.8,3.8c-0.5,0.6-0.6,1.5-0.6,2.2v6.7
		h-5.1V77.6c0-1.1-0.1-2.6-0.4-4.9c-0.6-3.5-1.7-10.3-2-12.7c-0.2-1.2-1-3.2-3.9-3.2H12.7c-1.4,0-2.4,0.1-2.4,0.8
		c0,0.8,0.9,1.6,0.7,2C10.3,62.3,8,71.4,7,74.6c-0.3,0.9-0.9,1.8-1.7,1.8c-0.4,0-0.9,0.3-0.9,1.1v26.4c0,1.8,1.1,2.6,3.5,2.6h6.8
		c1.3,0,1.9-1,2-1.5c1.2-4.6,5.5-8.1,10.5-8.1c1.2,0,2.4,0.2,3.5,0.6c2.6,0.9,5.6,3.4,6.9,7.6c0.4,1.4,1.3,1.4,2.1,1.4
		c0.7,0,1.1-1.5,1.1-2.3v-3.4h14.2c1.9-2.2,4.8-3.6,7.9-3.6c3.2,0,6,1.4,7.9,3.6h8.3v3.6c0,0.6,0.5,1,1,1h9.5c0.6,0,1-0.5,1-1v-3.6
		h3c1.9-2.2,4.8-3.6,7.9-3.6c3.2,0,6,1.4,7.9,3.6h5c1.9-2.2,4.8-3.6,7.9-3.6c3.2,0,6,1.4,7.9,3.6h1.2c0.7,0,1.3-0.6,1.3-1.3v-8
		c0-0.7-0.6-1.3-1.3-1.3h-4.7v-6.2h3.7c2,2.8,6.1,8.8,8.9,12.6c2.2,3.1,4,4.9,5.5,4.2C145.9,100.2,146,97.9,145.6,95.7z M28.1,75.4
		c0,0.5-0.4,1-1,1H10.9c-0.5,0-2-0.6-1.8-2.3c0.1-1.1,2.8-10.4,3.5-12.6c0.4-1.5,1.6-2.6,3.1-2.6h11.4c0.5,0,1,0.4,1,1V75.4z
		 M37.6,76.4h-6.5c-0.5,0-1-0.4-1-1V59.9c0-0.5,0.4-1,1-1h4.1c0.5,0,0.9,0.4,1,1c0.5,3.7,1.9,12.2,2.4,15.2
		C38.7,75.9,38.1,76.4,37.6,76.4z M129.7,74.1h-1c-0.3,0-0.6,0.3-0.6,0.7v4.4h-1.2v-3c0-0.5-0.3-0.7-0.6-0.7h-1.1v-3.8h4.5V74.1z"/>
	<path fill="#0C2344" d="M63.7,83.2c0.6,2.3,2.7,2.8,4.8,3.2c1.7,0.3,8.3,0.6,14.1,1.3c2.3,0.3,4.8,0.4,7.3-0.3
		c2.8-0.7,5.7-1.5,8.5-2.3c2.1-0.6,6.7-3.2,8.3-4.7c3.1-2.9,7.3-6.8,10.6-9.8c0.6,1.7,2.5,1.2,1.7-1.5c1.4-1.3,2.6-2.5,3.1-2.9
		c0.6-0.6,1-0.6,1.4-0.4c1,0.5,2.3,1.8,3.3,1.6c0.3,0,1.8-0.5,2-0.6c1.2-0.4,0.6-2.2,0.2-3.8c0.4-0.3,2.8-1.9,3.8-2.7
		c0.7-0.5,1.4-1.6,1.1-2.6c-0.2-0.7-4.5-16.7-4.6-17.4c-0.3-1-1.5-1.6-2.2-1.7c-1.3-0.1-4.1-0.4-4.6-0.4c-0.4-1.5-0.8-3.4-2.1-3.2
		c-0.3,0-1.8,0.4-2.1,0.5c-1,0.4-1.4,2.1-2.1,3.1c-0.3,0.4-0.6,0.6-1.4,0.4c-0.6-0.1-2.3-0.5-4.1-1c-0.7-2.8-2.5-2.3-2.2-0.5
		c-4.4-1-9.9-2.3-14-3.2c-2-0.5-7.4-0.5-9.5,0.1c-2.8,0.8-5.7,1.5-8.5,2.3c-2.5,0.7-4.6,2-6.5,3.4c-4.6,3.5-10.2,7-11.6,8.1
		c-1.7,1.4-3.2,2.9-2.6,5.2C56,54.2,63.5,82.5,63.7,83.2z"/>
	<circle fill="#0C2344" cx="27.2" cy="107.6" r="3.9"/>
	<path fill="#0C2344" d="M27.2,99.1c-4.7,0-8.5,3.8-8.5,8.5s3.8,8.5,8.5,8.5s8.5-3.8,8.5-8.5S31.9,99.1,27.2,99.1z M27.2,113
		c-2.9,0-5.3-2.4-5.3-5.3c0-2.9,2.4-5.3,5.3-5.3c2.9,0,5.3,2.4,5.3,5.3C32.5,110.6,30.2,113,27.2,113z"/>
	<circle fill="#0C2344" cx="62.7" cy="107.6" r="3.9"/>
	<path fill="#0C2344" d="M62.7,99.1c-4.7,0-8.5,3.8-8.5,8.5s3.8,8.5,8.5,8.5s8.5-3.8,8.5-8.5S67.4,99.1,62.7,99.1z M62.7,113
		c-2.9,0-5.3-2.4-5.3-5.3c0-2.9,2.4-5.3,5.3-5.3s5.3,2.4,5.3,5.3C68,110.6,65.6,113,62.7,113z"/>
	<path fill="#0C2344" d="M101.8,103.8c-2.1,0-3.9,1.7-3.9,3.9c0,2.1,1.7,3.9,3.9,3.9c2.1,0,3.9-1.7,3.9-3.9
		C105.7,105.5,103.9,103.8,101.8,103.8z"/>
	<path fill="#0C2344" d="M101.8,99.1c-4.7,0-8.5,3.8-8.5,8.5s3.8,8.5,8.5,8.5s8.5-3.8,8.5-8.5S106.5,99.1,101.8,99.1z M101.8,113
		c-2.9,0-5.3-2.4-5.3-5.3c0-2.9,2.4-5.3,5.3-5.3c2.9,0,5.3,2.4,5.3,5.3C107.1,110.6,104.7,113,101.8,113z"/>
	<circle fill="#0C2344" cx="122.6" cy="107.6" r="3.9"/>
	<path fill="#0C2344" d="M122.6,99.1c-4.7,0-8.5,3.8-8.5,8.5s3.8,8.5,8.5,8.5c4.7,0,8.5-3.8,8.5-8.5S127.3,99.1,122.6,99.1z
		 M122.6,113c-2.9,0-5.3-2.4-5.3-5.3c0-2.9,2.4-5.3,5.3-5.3c2.9,0,5.3,2.4,5.3,5.3C127.9,110.6,125.5,113,122.6,113z"/>
</g>
</svg>
