<?xml version="1.0" encoding="utf-8"?>
<!-- Generator: Adobe Illustrator 16.0.0, SVG Export Plug-In . SVG Version: 6.00 Build 0)  -->
<!DOCTYPE svg PUBLIC "-//W3C//DTD SVG 1.1//EN" "http://www.w3.org/Graphics/SVG/1.1/DTD/svg11.dtd" [
	<!ENTITY ns_flows "http://ns.adobe.com/Flows/1.0/">
	<!ENTITY ns_extend "http://ns.adobe.com/Extensibility/1.0/">
	<!ENTITY ns_ai "http://ns.adobe.com/AdobeIllustrator/10.0/">
	<!ENTITY ns_graphs "http://ns.adobe.com/Graphs/1.0/">
	<!ENTITY ns_vars "http://ns.adobe.com/Variables/1.0/">
	<!ENTITY ns_imrep "http://ns.adobe.com/ImageReplacement/1.0/">
	<!ENTITY ns_sfw "http://ns.adobe.com/SaveForWeb/1.0/">
	<!ENTITY ns_custom "http://ns.adobe.com/GenericCustomNamespace/1.0/">
	<!ENTITY ns_adobe_xpath "http://ns.adobe.com/XPath/1.0/">
]>
<svg version="1.1" id="Layer_1" xmlns:x="&ns_extend;" xmlns:i="&ns_ai;" xmlns:graph="&ns_graphs;"
	 xmlns="http://www.w3.org/2000/svg" xmlns:xlink="http://www.w3.org/1999/xlink" xmlns:a="http://ns.adobe.com/AdobeSVGViewerExtensions/3.0/"
	 x="0px" y="0px" width="150px" height="150px" viewBox="0 0 150 150" enable-background="new 0 0 150 150" xml:space="preserve">
<metadata>
	<sfw  xmlns="&ns_sfw;">
		<slices></slices>
		<sliceSourceBounds  width="143.4" height="97.9" y="28.8" x="2.8" bottomLeftOrigin="true"></sliceSourceBounds>
	</sfw>
</metadata>
<g>
	<g>
		<path fill="#0C2344" d="M78.4,107.5c-4-16.3,7.4-27.7-2.2-38.7c8.6-0.7,13.4,1.7,16.3,4.2c0.6-2.8,2.8-7.4-0.7-14.8
			c-0.6-1.3-1.5-2.8-2.5-4.4c2.5-0.3,5.2,0.1,7.7,0.9C80.3,41.1,58.8,23.9,58.8,23.9c0,0-9.5,7.6-20.7,16.7v-8.9h3.9V26H19.5v5.7
			h3.9v20.7C16,58.3,9.2,63.7,5,67.1c-1.8,1.5-1.8,2.2-1.5,2.8c0.4,0.7,1.4,1.9,1.9,2.5c0.5,0.6,2.4-0.2,3-0.7
			c1.9-1.5,4.3-3.4,7-5.5v55.5H49V78.9h19.6v42.8h18.7C83.3,118.6,80,114.1,78.4,107.5z M41.3,95.6H23.5V78.8h17.8V95.6z M142.7,82
			c0.1,4.7-2.3,12.2-8.9,14.8c3.1-4,3.5-8,3.3-12c-0.6-9.4-8-16-2.3-25c-5.8,2-11.5,8-11.5,14.7c-3.6-9.1,3.8-23.7-16.8-39.1
			c9.6,14.3-1.5,22.9-1,33.8c-1.8-5-4-7.2-8.9-9.9c5,7.7-1.3,16.9-0.8,26.5c-1.3-6.6-4-8.6-12.3-12.2c6.4,9.1-2.6,18.4,0.3,30.5
			c3.4,14.2,15.9,17.5,24.9,17.5c-8.6-4.7-10.8-10.9-11.4-17.8c2.9,3.4,6.3,4.7,7.8,5.1c-2.3-5.4-3.1-11.1-0.3-18.3
			c1,4.2,4.5,7.6,6,8.2c-0.2-4.8,1.8-11.4,4.7-15.8c0.9,6.4,1.9,11.9,4.4,16.6c1.7-0.9,5.5-3.6,5.9-8.3c2.4,4.4,1,12.1-1.5,14.8
			c2.5,0.8,5.6,0.7,8.9,0c-1.6,8-7.9,13.1-13.6,15.5C137.7,121.7,154.6,105.9,142.7,82z"/>
	</g>
</g>
</svg>
